<svg width="40" height="32" viewBox="0 0 40 32" fill="none" xmlns="http://www.w3.org/2000/svg">
<path d="M38.2166 0H1.69851C0.764331 0 0 0.764331 0 1.69851V12.3142C0 13.2484 0.764331 14.0127 1.69851 14.0127H38.3015C39.2357 14.0127 40 13.2484 40 12.3142V1.61359C39.9151 0.679406 39.1507 0 38.2166 0Z" fill="#154F9E"/>
<path d="M13.5881 20.1275C13.5881 21.0616 14.3525 21.826 15.2866 21.826C16.2208 21.826 16.9852 21.0616 16.9852 20.1275V17.24H13.6731V20.1275H13.5881Z" fill="#154F9E"/>
<path d="M35.7539 17.24H22.1658L25.8176 30.2336C25.9874 30.913 26.6668 31.4226 27.4312 31.4226H37.5373C38.0469 31.4226 38.5564 31.1678 38.8961 30.7432C39.2358 30.3185 39.3208 29.809 39.1509 29.2994L35.7539 17.24Z" fill="#154F9E"/>
</svg>
