<svg width="40" height="40" viewBox="0 0 40 40" fill="none" xmlns="http://www.w3.org/2000/svg">
<path d="M39.1997 16.3396L33.1602 12.5969H33.0752C32.9901 12.5969 32.9051 12.5118 32.82 12.5118C31.8843 12.0014 30.7785 11.9164 29.5876 12.1716C27.2059 12.767 24.654 14.8936 22.7826 17.8708C19.8054 22.6343 19.8905 27.6529 22.8677 29.4393C23.5482 29.8646 24.3137 30.0347 25.1644 30.0347C25.5897 30.0347 26.015 29.9496 26.4403 29.8646C28.8221 29.2691 31.3739 27.1426 33.2453 24.1654C34.6063 21.9538 35.2868 19.7421 35.3719 17.8708L37.4984 19.1467C37.7536 19.3168 38.0939 19.4019 38.3491 19.4019C38.9445 19.4019 39.4549 19.1467 39.7951 18.6363C40.2204 17.8708 39.9652 16.85 39.1997 16.3396Z" fill="#154F9E"/>
<path d="M11.9797 32.5015H5.60001V30.1197C5.60001 29.1841 4.83445 28.4185 3.89876 28.4185C2.96307 28.4185 2.19751 29.1841 2.19751 30.1197V38.2857C2.19751 39.2214 2.96307 39.987 3.89876 39.987C4.83445 39.987 5.60001 39.2214 5.60001 38.2857V35.7339H13.6809C14.6166 35.7339 15.3822 34.9683 15.3822 34.0326V28.5886L12.0648 26.5471V32.5015H11.9797Z" fill="#154F9E"/>
<path d="M27.6313 9.27928L14.957 1.45353C12.7453 0.0925289 10.1084 -0.332784 7.55654 0.262654C5.00466 0.858091 2.79304 2.47428 1.43204 4.6859C-1.37503 9.36434 0.0710368 15.4038 4.66441 18.2959L17.2537 26.0366C16.9134 23.0594 17.764 19.5718 19.8906 16.0843C21.9321 12.7668 24.7392 10.3 27.6313 9.27928Z" fill="#154F9E"/>
</svg>
