<svg width="40" height="40" viewBox="0 0 40 40" fill="none" xmlns="http://www.w3.org/2000/svg">
<path d="M38.6412 4.90446L20.3822 0.0636943C20.1274 -0.0212314 19.7877 -0.0212314 19.5329 0.0636943L1.27389 4.90446C0.509554 5.07431 0 5.75372 0 6.51805C0 11.9533 1.27389 17.3036 3.6518 22.2293C4.84076 21.8047 6.11465 21.5499 7.47346 21.5499C7.81316 21.5499 8.15287 21.5499 8.5775 21.6348C9.68153 21.7197 10.7856 22.0594 11.8047 22.4841L13.673 20.9554C11.8896 18.9172 12.0594 15.7749 14.0977 13.9915C14.9469 13.2272 16.051 12.8025 17.2399 12.7176C17.4947 11.7834 18.0042 10.8493 18.7686 10.1699C19.7028 9.32059 20.8917 8.89597 22.0807 8.89597C23.5244 8.89597 24.8832 9.49045 25.8174 10.5945L29.1295 14.3312L29.3843 14.586L29.4692 14.6709C29.5541 14.7558 29.6391 14.8408 29.6391 14.9257C29.724 15.0106 29.8089 15.1805 29.8938 15.2654C29.9788 15.4352 30.0637 15.5202 30.0637 15.69C30.1486 15.8599 30.2335 16.0297 30.2335 16.1147C30.3185 16.2845 30.3185 16.4544 30.4034 16.6242C30.4034 16.7941 30.4883 16.9639 30.4883 17.1338C30.4883 17.3036 30.4883 17.4735 30.4883 17.6433C30.4883 17.8132 30.4883 17.8981 30.4883 18.0679C30.4883 18.3227 30.4883 18.4076 30.4034 18.5775C30.4034 18.7473 30.3185 18.9172 30.3185 19.087C30.3185 19.2569 30.2335 19.3418 30.1486 19.5117C30.0637 19.6815 30.0637 19.8514 29.9788 19.9363C29.8938 20.1062 29.8089 20.1911 29.724 20.3609C29.6391 20.5308 29.5541 20.6157 29.4692 20.7856C29.3843 20.9554 29.2994 21.0403 29.1295 21.1253C29.0446 21.2102 28.9597 21.2951 28.8747 21.38L28.7898 21.465L28.62 21.6348L18.0892 30.1274C18.6837 32.845 18.1741 35.6476 16.8153 37.9406C17.5796 38.535 18.344 39.0446 19.1083 39.5541C19.3631 39.724 19.7028 39.8089 20.0425 39.8089C20.3822 39.8089 20.7219 39.724 20.9766 39.5541C32.9512 31.4862 39.9151 19.4268 40 6.43312C39.9151 5.75372 39.4055 5.07431 38.6412 4.90446Z" fill="#154F9E"/>
<path d="M26.497 18.9173C26.5819 18.8324 26.5819 18.8324 26.6668 18.7474C26.6668 18.6625 26.7518 18.6625 26.7518 18.5776C26.7518 18.5776 26.8367 18.4927 26.8367 18.4077C26.8367 18.3228 26.9216 18.3228 26.9216 18.2379C26.9216 18.153 26.9216 18.153 27.0065 18.068C27.0065 17.9831 27.0065 17.9831 27.0915 17.8982C27.0915 17.8133 27.0915 17.8133 27.0915 17.7283C27.0915 17.6434 27.0915 17.6434 27.0915 17.5585C27.0915 17.4736 27.0915 17.4736 27.0915 17.3886C27.0915 17.3037 27.0915 17.3037 27.0915 17.2188C27.0915 17.1339 27.0915 17.1339 27.0915 17.0489C27.0915 16.964 27.0915 16.964 27.0915 16.8791C27.0915 16.7941 27.0915 16.7941 27.0065 16.7092C27.0065 16.6243 27.0065 16.6243 26.9216 16.5394C26.9216 16.4544 26.8367 16.4544 26.8367 16.3695L26.7518 16.2846L23.3547 12.4629C22.7602 11.7835 21.6562 11.6986 20.9768 12.378C20.2974 12.9725 20.2125 14.0765 20.8919 14.7559L23.1849 17.3037L21.1467 19.0022L18.5989 16.5394C18.0044 15.86 16.9004 15.775 16.221 16.4544C15.5416 17.0489 15.4566 18.153 16.136 18.8324L18.429 21.3801L12.1445 26.5606C11.0405 25.7113 9.68169 25.1169 8.32288 25.0319C6.36959 24.8621 4.41629 25.4566 2.80271 26.7305C-0.424471 29.1933 -0.934025 33.9491 1.69867 37.1763C2.97256 38.705 4.756 39.7241 6.79421 39.8939C7.04899 39.8939 7.30377 39.8939 7.55854 39.8939C9.25706 39.8939 10.9556 39.2995 12.3144 38.1954C15.032 35.9024 15.7963 32.0808 14.2677 29.0234L26.497 18.9173Z" fill="#154F9E"/>
</svg>
