<svg width="40" height="40" viewBox="0 0 40 40" fill="none" xmlns="http://www.w3.org/2000/svg">
<path d="M5.85998 7.88912C6.28461 8.4836 6.70924 8.99316 7.13386 9.41779C8.9173 8.22883 10.9555 7.4645 13.1636 7.37957C13.2485 7.37957 13.3334 7.37957 13.4184 7.37957C13.5882 7.37957 13.6731 7.37957 13.7581 7.37957C15.7963 7.4645 17.5797 8.05898 19.2782 9.07808C19.4481 8.99316 19.533 8.82331 19.7029 8.82331C19.8727 8.73838 20.0426 8.65346 20.2124 8.56853C20.8069 8.31375 21.5712 7.97405 22.1657 7.29464C23.4396 5.76598 23.015 3.72776 22.8451 2.87851C22.7602 2.53881 22.6753 1.94433 22.2506 1.43477C21.4014 0.245811 19.8727 0.0759599 19.2782 0.0759599C18.0893 -0.00896584 16.8154 -0.0938915 15.5415 0.245811C15.2867 0.330737 15.032 0.415663 14.8621 0.500588C14.6073 0.585514 14.3525 0.67044 14.1827 0.67044C13.9279 0.755365 13.5882 0.755365 13.1636 0.755365H7.64342C7.30371 0.755365 6.62431 0.755365 6.02983 1.09507C4.84087 1.60462 4.24639 2.87851 4.41624 4.40717C4.50117 5.59613 5.01072 6.78509 5.85998 7.88912Z" fill="#154F9E"/>
<path d="M38.3016 21.3074H22.5054C21.5712 21.3074 20.8069 21.9868 20.8069 22.7511V34.4709C20.8069 35.3201 21.5712 35.9146 22.5054 35.9146H38.3016C39.2358 35.9146 40.0001 35.2352 40.0001 34.4709V22.7511C40.0001 21.9019 39.2358 21.3074 38.3016 21.3074Z" fill="#154F9E"/>
<path d="M13.5881 10.7766C13.5032 10.7766 13.5032 10.7766 13.4183 10.7766C13.3333 10.7766 13.3333 10.7766 13.2484 10.7766C5.6051 11.0314 0 23.8552 0 30.5643C0 36.7639 4.50106 39.991 13.2484 39.991H13.3333C16.1359 39.991 18.5138 39.6513 20.4671 38.9719C18.5987 38.2925 17.3248 36.5091 17.3248 34.5558V22.7511C17.3248 20.7129 18.6837 18.9295 20.6369 18.2501V16.7214C20.6369 16.2119 20.7219 15.7023 20.8068 15.1927C18.9384 12.5601 16.3907 10.8615 13.5881 10.7766Z" fill="#154F9E"/>
<path d="M27.516 16.7213C27.516 15.1077 28.8748 13.8338 30.4884 13.8338C32.1019 13.8338 33.4608 15.1077 33.4608 16.7213V17.9952H36.7729V16.7213C36.7729 13.3243 33.9703 10.5217 30.4884 10.5217C27.0064 10.5217 24.2039 13.3243 24.2039 16.7213V17.9952H27.516V16.7213Z" fill="#154F9E"/>
</svg>
