<svg width="32" height="40" viewBox="0 0 32 40" fill="none" xmlns="http://www.w3.org/2000/svg">
<path d="M29.5494 36.6035H29.1248H2.1228H1.69824C0.764208 36.6035 0 37.3677 0 38.3018C0 39.2358 0.764208 40 1.69824 40H3.82104H27.4266H29.5494C30.4834 40 31.2476 39.2358 31.2476 38.3018C31.2476 37.3677 30.4834 36.6035 29.5494 36.6035Z" fill="#154F9E"/>
<path d="M15.6238 12.998C8.15155 12.998 2.1228 19.0268 2.1228 26.4991V33.292H29.0399V26.4991C29.1248 19.0268 23.0961 12.998 15.6238 12.998Z" fill="#154F9E"/>
<path d="M3.90593 11.7244C4.24558 12.2338 4.75505 12.4886 5.34943 12.4886C5.60417 12.4886 5.94382 12.4037 6.19855 12.2338C6.96276 11.7244 7.2175 10.7054 6.79294 9.94122L3.82102 5.10124C3.31155 4.42194 2.2926 4.16721 1.5284 4.67668C0.679275 5.10124 0.424539 6.12018 0.934011 6.88439L3.90593 11.7244Z" fill="#154F9E"/>
<path d="M25.0489 12.3188C25.3036 12.4886 25.6433 12.5735 25.898 12.5735C26.4924 12.5735 27.0019 12.3188 27.3415 11.8093L30.3135 6.96931C30.8229 6.2051 30.5682 5.18616 29.7191 4.67669C28.9549 4.16721 27.9359 4.42195 27.4264 5.27107L24.4545 10.1111C24.03 10.7903 24.2847 11.8093 25.0489 12.3188Z" fill="#154F9E"/>
<path d="M15.7087 8.92221C16.6428 8.92221 17.407 8.15801 17.407 7.22397L17.3221 1.61978C17.3221 0.685752 16.5579 -0.078456 15.6238 0.00645597C14.6898 0.00645597 14.0105 0.770664 14.0105 1.7047L14.0954 7.30889C14.0105 8.24292 14.7747 8.92221 15.7087 8.92221Z" fill="#154F9E"/>
</svg>
