<svg width="40" height="40" viewBox="0 0 40 40" fill="none" xmlns="http://www.w3.org/2000/svg">
<path d="M25.2229 19.9575C25.2229 17.0701 22.845 14.6921 19.9575 14.6921C17.0701 14.6921 14.6921 17.0701 14.6921 19.9575C14.6921 22.845 17.0701 25.2229 19.9575 25.2229C22.845 25.2229 25.2229 22.845 25.2229 19.9575Z" fill="#154F9E"/>
<path d="M38.2166 0H1.69851C0.764331 0 0 0.764331 0 1.69851V38.3015C0 39.2357 0.764331 40 1.69851 40H38.3015C39.2357 40 40 39.2357 40 38.3015V1.69851C39.9151 0.764331 39.1507 0 38.2166 0ZM29.1295 21.6561H28.3652C28.1104 22.7601 27.6858 23.8641 27.0913 24.7983L27.6858 25.3928C28.3652 26.0722 28.3652 27.0913 27.6858 27.7707C27.3461 28.1104 26.9214 28.2803 26.4968 28.2803C26.0722 28.2803 25.6476 28.1104 25.3079 27.7707L24.7134 27.1762C23.7792 27.7707 22.7601 28.2803 21.5711 28.4501V29.2144C21.5711 30.1486 20.8068 30.913 19.8726 30.913C18.9384 30.913 18.1741 30.1486 18.1741 29.2144V28.4501C17.0701 28.1953 15.966 27.7707 15.0318 27.1762L14.6072 27.6009C14.2675 27.9406 13.8429 28.1104 13.4183 28.1104C12.9936 28.1104 12.569 27.9406 12.2293 27.6009C11.5499 26.9214 11.5499 25.9023 12.2293 25.2229L12.8238 24.6285C12.2293 23.6943 11.7197 22.6752 11.5499 21.4862H10.7856C9.85138 21.4862 9.08705 20.7219 9.08705 19.7877C9.08705 18.8535 9.85138 18.0892 10.7856 18.0892H11.5499C11.8047 16.9851 12.2293 15.8811 12.8238 14.9469L12.3142 14.6072C11.6348 13.9278 11.6348 12.9087 12.3142 12.2293C12.9936 11.5499 14.0127 11.5499 14.6921 12.2293L15.2866 12.8238C16.2208 12.2293 17.2399 11.7197 18.4289 11.5499V10.7856C18.4289 9.85138 19.1932 9.08705 20.1274 9.08705C21.0616 9.08705 21.8259 9.85138 21.8259 10.7856V11.5499C22.9299 11.8047 24.034 12.2293 24.9682 12.8238L25.5626 12.2293C26.242 11.5499 27.2611 11.5499 27.9406 12.2293C28.62 12.9087 28.62 13.9278 27.9406 14.6072L27.3461 15.2017C27.9406 16.1359 28.4501 17.155 28.62 18.344H29.3843C30.3185 18.344 31.0828 19.1083 31.0828 20.0425C31.0828 20.9766 30.0637 21.6561 29.1295 21.6561Z" fill="#154F9E"/>
</svg>
