<svg width="40" height="45" viewBox="0 0 40 45" fill="none" xmlns="http://www.w3.org/2000/svg">
<path d="M38.1879 9.30948H32.2032V1.89989C32.2032 0.854953 31.3483 0 30.3033 0H9.78446C8.73951 0 7.88456 0.854953 7.88456 1.89989V9.40448H1.89989C0.854953 9.40448 0 10.2594 0 11.3044V23.2737C0 35.0531 8.9295 44.6475 20.0439 44.6475C31.0633 44.6475 39.9928 35.0531 39.9928 23.2737V11.2094C40.0878 10.1644 39.2328 9.30948 38.1879 9.30948ZM26.4085 22.7987L19.5689 29.1634C19.1889 29.5434 18.714 29.6384 18.334 29.6384C17.859 29.6384 17.384 29.4484 17.0041 29.0684L13.6792 25.8386C12.9193 25.0786 12.9193 23.9387 13.6792 23.1787C14.4392 22.4188 15.5791 22.4188 16.3391 23.1787L18.334 25.1736L23.8437 19.9489C24.6036 19.2839 25.7436 19.2839 26.5035 20.0439C27.1685 20.8988 27.1685 22.1338 26.4085 22.7987Z" fill="#154F9E"/>
</svg>
