<svg width="60" height="60" viewBox="0 0 60 60" fill="none" xmlns="http://www.w3.org/2000/svg">
<path d="M0 24.375C0 27.865 2.39508 30.7727 5.625 31.6113V56.25H1.875C0.842227 56.25 0 57.0886 0 58.125C0 59.1614 0.842344 60 1.875 60H58.125C59.165 60 60 59.1614 60 58.125C60 57.0886 59.165 56.25 58.125 56.25H54.375V31.6113C57.605 30.7727 60 27.865 60 24.375V22.5H0V24.375ZM37.5 31.875C41.6455 31.875 45 28.5169 45 24.375C45 27.865 47.3951 30.7727 50.625 31.6113V56.25H22.5V31.875C26.6455 31.875 30 28.5169 30 24.375C30 28.5169 33.3619 31.875 37.5 31.875ZM20.625 31.6113V56.25H9.375V31.6113C12.605 30.7727 15 27.865 15 24.375C15 27.865 17.3951 30.7727 20.625 31.6113ZM52.5 5.625H7.5L0 20.625H60L52.5 5.625ZM15.8423 9.79254L12.0923 17.2925C11.9238 17.6222 11.5943 17.8126 11.25 17.8126C11.1108 17.8126 10.968 17.7833 10.8325 17.7137C10.371 17.483 10.1805 16.9191 10.4149 16.4576L14.1649 8.95758C14.3993 8.49609 14.9596 8.30941 15.4211 8.53641C15.8863 8.76715 16.0693 9.33106 15.8423 9.79254ZM23.3423 9.79254L19.5923 17.2925C19.4238 17.6222 19.0943 17.8126 18.75 17.8126C18.6108 17.8126 18.468 17.7833 18.3325 17.7137C17.871 17.483 17.6805 16.9191 17.9149 16.4576L21.6649 8.95758C21.8993 8.49609 22.4633 8.30941 22.9211 8.53641C23.3863 8.76715 23.5693 9.33106 23.3423 9.79254ZM30.9375 16.875C30.9375 17.3951 30.52 17.8125 30 17.8125C29.4837 17.8125 29.0625 17.395 29.0625 16.875V9.375C29.0625 8.85492 29.4837 8.4375 30 8.4375C30.5201 8.4375 30.9375 8.85504 30.9375 9.375V16.875ZM41.7041 17.6953C41.5576 17.7759 41.4038 17.8125 41.25 17.8125C40.9204 17.8125 40.5981 17.6367 40.4297 17.3255L36.3281 9.82547C36.0791 9.37137 36.2475 8.80008 36.7017 8.55469C37.1486 8.30566 37.7271 8.4668 37.9761 8.92453L42.0777 16.4245C42.3193 16.8786 42.1582 17.4499 41.7041 17.6953ZM49.1675 17.7136C49.0357 17.7832 48.8965 17.8125 48.75 17.8125C48.4057 17.8125 48.0762 17.6221 47.915 17.2924L44.165 9.79242C43.9307 9.33094 44.1211 8.76703 44.5826 8.53629C45.0367 8.30555 45.608 8.49234 45.8423 8.95746L49.5923 16.4575C49.8193 16.9189 49.6363 17.483 49.1675 17.7136ZM15.9375 45.2857V40.9644C15.3881 40.6348 15 40.0635 15 39.375C15 38.3386 15.8423 37.5 16.875 37.5C17.915 37.5 18.75 38.3386 18.75 39.375C18.75 40.0635 18.3655 40.6348 17.8125 40.9644V45.2857C18.3655 45.6154 18.75 46.1866 18.75 46.8751C18.75 47.9115 17.915 48.7501 16.875 48.7501C15.8422 48.7501 15 47.9115 15 46.8751C15 46.1865 15.3882 45.6152 15.9375 45.2857ZM7.5 1.875C7.5 0.838594 8.34234 0 9.375 0H50.625C51.665 0 52.5 0.838594 52.5 1.875C52.5 2.91141 51.665 3.75 50.625 3.75H9.375C8.34234 3.75 7.5 2.91141 7.5 1.875ZM32.8638 41.9128L31.5381 40.5871L36.8408 35.2843L38.1666 36.6101L32.8638 41.9128ZM32.8638 47.2155L31.5381 45.8898L42.1436 35.2843L43.4693 36.6101L32.8638 47.2155ZM42.1436 40.5872L43.4693 41.9129L38.1666 47.2157L36.8408 45.8899L42.1436 40.5872Z" fill="#FFFCFC"/>
</svg>
