<svg width="88" height="50" viewBox="0 0 88 50" fill="none" xmlns="http://www.w3.org/2000/svg">
<path fill-rule="evenodd" clip-rule="evenodd" d="M2.02121 41.2038C-0.523737 41.2038 0.0570367 30.9292 0.0570367 26.8215C0.0570367 25.1953 1.40879 25.5754 1.90495 23.9914C3.89028 17.6346 9.17004 5.73379 22.1056 5.73379H29.2016V3.18901C29.2016 1.43603 30.6378 0 32.3802 0H34.5977C36.3506 0 37.7762 1.43603 37.7762 3.18901V5.73379H39.2545C48.3675 5.73379 58.283 15.5755 67.9874 19.8416H69.7509C81.3559 20.0211 84.376 24.8362 86.0444 29.3874C86.2344 29.9049 87.4277 30.3694 87.5438 30.8764C88.357 34.4562 87.3959 41.1403 86.5618 41.2143H81.2398C81.2398 41.077 81.2498 40.9503 81.2498 40.8235C81.2498 34.5618 76.181 29.5037 69.9193 29.5037C63.6678 29.5037 58.5993 34.5618 58.5993 40.8235V41.2143H27.9868C27.9968 41.077 27.9968 40.9503 27.9968 40.8235C27.9968 34.5618 22.9282 29.5037 16.6768 29.5037C10.4255 29.5037 5.35695 34.5618 5.35695 40.8235C5.35695 40.9503 5.35695 41.077 5.36694 41.2143H2.01954V41.2043L2.02121 41.2038ZM16.678 36.3146C14.1965 36.3146 12.1795 38.3316 12.1795 40.813C12.1795 43.2945 14.186 45.3115 16.678 45.3115C19.1701 45.3115 21.1764 43.305 21.1764 40.813C21.1764 38.3316 19.1594 36.3146 16.678 36.3146V36.3146ZM16.678 31.6156C11.6094 31.6156 7.49101 35.7443 7.49101 40.813C7.49101 45.8816 11.6094 50 16.678 50C21.7465 50 25.8649 45.8816 25.8649 40.813C25.8649 35.7443 21.7465 31.6156 16.678 31.6156V31.6156ZM69.9093 36.3146C67.4276 36.3146 65.4213 38.3316 65.4213 40.813C65.4213 43.2945 67.4276 45.3115 69.9093 45.3115C72.3908 45.3115 74.4076 43.305 74.4076 40.813C74.4176 38.3316 72.4013 36.3146 69.9093 36.3146V36.3146ZM69.9093 31.6156C64.8405 31.6156 60.7223 35.7443 60.7223 40.813C60.7223 45.8816 64.8405 50 69.9093 50C74.9883 50 79.1067 45.8816 79.1067 40.813C79.1067 35.7443 74.9883 31.6156 69.9093 31.6156V31.6156ZM34.0908 26.1773C34.3232 32.5448 34.6928 34.7412 40.68 37.8141C46.6673 34.7412 47.0369 32.5448 47.2693 26.1773C47.2793 25.9661 47.206 25.7972 47.0687 25.6388C46.9208 25.4909 46.7519 25.417 46.5408 25.417C46.0128 25.407 45.2841 25.2164 44.5554 24.7517C43.4255 24.0337 42.0528 23.6642 40.6696 23.6853C39.2968 23.6642 37.9241 24.0232 36.7942 24.7517C36.0655 25.2164 35.3368 25.4065 34.8089 25.417C34.5977 25.417 34.4288 25.5016 34.2809 25.6388C34.1541 25.7972 34.0803 25.9768 34.0908 26.1773ZM12.1374 17.8141C11.8734 18.2786 11.8734 18.8173 12.1374 19.282C12.4013 19.7465 12.8659 20.0105 13.4045 20.0105H56.6251C57.2905 20.0105 57.8396 19.5987 58.0296 18.9652C58.2197 18.3209 57.9662 17.6769 57.4171 17.3178C57.0158 17.0643 56.6041 16.8003 56.2134 16.547C51.7572 13.6747 44.7033 8.74342 39.2545 8.74342H26.435C19.6874 8.74342 15.1363 12.6398 12.1374 17.8141V17.8141Z" fill="white"/>
</svg>
