<svg width="87" height="60" viewBox="0 0 87 60" fill="none" xmlns="http://www.w3.org/2000/svg">
<path d="M75.6621 0H11.0152C7.94541 0 5.5979 2.19101 5.5979 5.05618V48.8764H31.2399C32.6846 48.8764 33.768 49.5506 34.3098 50.5618H50.5618C51.1035 49.5506 52.3676 48.8764 53.6316 48.8764H81.0794V5.05618C81.0794 2.35955 78.7319 0 75.6621 0ZM74.7592 43.6517H11.9181V6.91011H74.9398V43.6517H74.7592Z" fill="white"/>
<path d="M86.6774 52.2474V54.1013C86.6774 57.3036 83.7881 60.0002 80.3571 60.0002H6.32022C2.88925 60.0002 0 57.3036 0 54.1013V52.2474C0 51.2362 0.902889 50.562 1.80578 50.562H31.0594C32.1429 50.562 32.8652 51.4047 32.8652 52.2474V53.5957C32.8652 54.607 33.7681 55.2811 34.6709 55.2811H49.8395C50.923 55.2811 51.6453 54.4384 51.6453 53.5957V52.4159C51.6453 51.4047 52.5482 50.7305 53.451 50.7305H84.8716C85.7745 50.562 86.6774 51.4047 86.6774 52.2474Z" fill="white"/>
<path d="M57.0625 17.3598C50.2006 15.8429 46.0473 12.8092 44.2415 11.1238C43.6998 10.6182 42.7969 10.6182 42.2552 11.1238C40.4494 12.6407 36.4767 15.8429 29.4341 17.3598C28.7118 17.5283 28.1701 18.034 28.3507 18.7081C28.5313 22.416 29.9759 34.5508 42.6163 39.607C42.9775 39.7755 43.3386 39.7755 43.6998 39.607C56.5208 34.7193 57.9654 22.5845 57.9654 18.7081C58.3266 18.2025 57.7849 17.5283 57.0625 17.3598ZM45.325 25.6182V29.6632C45.325 30.6744 44.4221 31.5171 43.3386 31.5171C42.2552 31.5171 41.3523 30.6744 41.3523 29.6632V25.6182C40.2688 24.9441 39.5465 23.9328 39.5465 22.5845C39.5465 20.562 41.1717 19.0452 43.3386 19.0452C45.325 19.0452 47.1308 20.562 47.1308 22.5845C46.9502 23.9328 46.4085 24.9441 45.325 25.6182Z" fill="white"/>
</svg>
