<svg width="60" height="75" viewBox="0 0 60 75" fill="none" xmlns="http://www.w3.org/2000/svg">
<g clip-path="url(#clip0)">
<path d="M15.4688 8.32482L11.7188 6.21544C11.5762 6.13316 11.4146 6.08984 11.25 6.08984C11.0854 6.08984 10.9238 6.13316 10.7813 6.21544L7.03126 8.32482C6.88819 8.40742 6.76949 8.52635 6.68717 8.66958C6.60486 8.81281 6.56185 8.97525 6.56251 9.14044V13.3592C6.56185 13.5244 6.60486 13.6868 6.68717 13.8301C6.76949 13.9733 6.88819 14.0922 7.03126 14.1748L10.7813 16.2842C10.9238 16.3665 11.0854 16.4098 11.25 16.4098C11.4146 16.4098 11.5762 16.3665 11.7188 16.2842L15.4688 14.1748C15.6118 14.0922 15.7305 13.9733 15.8128 13.8301C15.8952 13.6868 15.9382 13.5244 15.9375 13.3592V9.14044C15.9382 8.97525 15.8952 8.81281 15.8128 8.66958C15.7305 8.52635 15.6118 8.40742 15.4688 8.32482Z" fill="white"/>
<path d="M11.25 -0.000224682C8.72993 -0.017528 6.27798 0.817504 4.29225 2.3693C2.30653 3.92109 0.903626 6.09853 0.311323 8.54809C-0.28098 10.9977 -0.0279073 13.5755 1.02945 15.8631C2.08681 18.1507 3.88637 20.0138 6.13596 21.1498V56.442C6.13596 58.6873 7.45784 59.9998 9.71721 59.9998H12.7828C15.0422 59.9998 16.3641 58.6873 16.3641 56.442V21.1498C18.6137 20.0138 20.4132 18.1507 21.4706 15.8631C22.528 13.5755 22.781 10.9977 22.1887 8.54809C21.5964 6.09853 20.1935 3.92109 18.2078 2.3693C16.2221 0.817504 13.7701 -0.017528 11.25 -0.000224682V-0.000224682ZM11.25 55.3123C11.0646 55.3123 10.8834 55.2573 10.7292 55.1543C10.575 55.0513 10.4548 54.9049 10.3839 54.7335C10.3129 54.5622 10.2944 54.3737 10.3305 54.1919C10.3667 54.01 10.456 53.843 10.5871 53.7119C10.7182 53.5808 10.8853 53.4915 11.0671 53.4553C11.249 53.4191 11.4375 53.4377 11.6088 53.5086C11.7801 53.5796 11.9265 53.6998 12.0295 53.8539C12.1325 54.0081 12.1875 54.1894 12.1875 54.3748C12.1875 54.6234 12.0888 54.8619 11.9129 55.0377C11.7371 55.2135 11.4987 55.3123 11.25 55.3123ZM15.511 19.4763L14.4891 19.9967V48.7498H8.01096V20.0013L6.98909 19.4763C5.11643 18.5308 3.61845 16.9799 2.73847 15.0756C1.85849 13.1713 1.64822 11.0253 2.1418 8.9864C2.63538 6.94747 3.80382 5.1353 5.45732 3.84426C7.11083 2.55322 9.15226 1.85914 11.25 1.87478C13.3478 1.85914 15.3892 2.55322 17.0427 3.84426C18.6962 5.1353 19.8647 6.94747 20.3583 8.9864C20.8518 11.0253 20.6416 13.1713 19.7616 15.0756C18.8816 16.9799 17.3836 18.5308 15.511 19.4763V19.4763Z" fill="white"/>
<path d="M30.9375 7.03125H26.25V11.7188H30.9375V7.03125Z" fill="white"/>
<path d="M26.25 22.0312H30.9375V20.3109L29.6016 21.3609C29.4373 21.4906 29.2343 21.5616 29.025 21.5625C28.7774 21.5627 28.5398 21.465 28.3641 21.2906L27.4641 20.4C27.2875 20.2247 27.1879 19.9865 27.187 19.7377C27.1861 19.4889 27.2841 19.25 27.4594 19.0734C27.6347 18.8969 27.8729 18.7972 28.1217 18.7964C28.3705 18.7955 28.6094 18.8935 28.7859 19.0688L29.0953 19.3781L30.825 18.0141L30.9375 17.9437V17.3438H26.25V22.0312Z" fill="white"/>
<path d="M30.9375 27.6562H26.25V32.3438H30.9375V27.6562Z" fill="white"/>
<path d="M56.25 0H19.6875L18.0657 0.028125C19.9882 1.18784 21.579 2.82397 22.6843 4.77832C23.7896 6.73267 24.3719 8.93913 24.375 11.1844V6.09375C24.375 5.84511 24.4738 5.60665 24.6496 5.43084C24.8254 5.25502 25.0639 5.15625 25.3125 5.15625H31.875C32.1237 5.15625 32.3621 5.25502 32.538 5.43084C32.7138 5.60665 32.8125 5.84511 32.8125 6.09375V12.6562C32.8125 12.9049 32.7138 13.1433 32.538 13.3192C32.3621 13.495 32.1237 13.5938 31.875 13.5938H25.3125C25.0639 13.5938 24.8254 13.495 24.6496 13.3192C24.4738 13.1433 24.375 12.9049 24.375 12.6562V11.1844C24.3786 13.3975 23.8169 15.5749 22.7431 17.5101C21.6692 19.4453 20.1189 21.0741 18.2391 22.2422V56.4609C18.2755 57.7354 17.8753 58.9841 17.1047 60H46.6922C46.1177 60.0177 45.5595 59.8073 45.1396 59.4146C44.7198 59.022 44.4724 58.4791 44.4516 57.9047V56.9672C43.8019 56.7719 43.1737 56.5112 42.5766 56.1891L41.9157 56.85C41.7265 57.038 41.5019 57.1866 41.2549 57.2872C41.0078 57.3878 40.7433 57.4383 40.4766 57.4359C39.866 57.4284 39.2824 57.1829 38.85 56.7516L37.9125 55.8141C37.492 55.4217 37.2445 54.8784 37.2242 54.3036C37.204 53.7287 37.4128 53.1694 37.8047 52.7484L38.4704 52.0875C38.1491 51.49 37.8884 50.8619 37.6922 50.2125H36.7547C36.1894 50.1846 35.6572 49.9373 35.2713 49.5234C34.8853 49.1094 34.6759 48.5612 34.6875 47.9953V46.6922C34.6698 46.1176 34.8803 45.5594 35.2729 45.1396C35.6655 44.7197 36.2084 44.4724 36.7829 44.4516H37.7204C37.9165 43.8022 38.1772 43.174 38.4985 42.5766L37.8375 41.9156C37.6492 41.7257 37.5004 41.5003 37.3998 41.2525C37.2992 41.0047 37.2488 40.7393 37.2516 40.4719C37.2616 39.8622 37.5088 39.2804 37.9407 38.85L38.8782 37.9125C39.3097 37.4795 39.8934 37.2322 40.5047 37.2234C40.7714 37.221 41.036 37.2716 41.283 37.3722C41.53 37.4727 41.7546 37.6214 41.9438 37.8094L42.6047 38.4703C43.2018 38.1482 43.83 37.8875 44.4797 37.6922V36.7547C44.5077 36.1902 44.7542 35.6587 45.1672 35.2729C45.5802 34.887 46.1271 34.6771 46.6922 34.6875H47.9954C48.5699 34.6698 49.1281 34.8802 49.548 35.2729C49.9678 35.6655 50.2152 36.2084 50.236 36.7828V37.7203C50.8857 37.9156 51.5139 38.1764 52.111 38.4984L52.7719 37.8375C52.9611 37.6495 53.1857 37.5009 53.4327 37.4003C53.6797 37.2997 53.9443 37.2492 54.211 37.2516C54.8216 37.2591 55.4052 37.5046 55.8375 37.9359L56.775 38.8734C57.1943 39.2671 57.4401 39.8111 57.4586 40.3859C57.477 40.9607 57.2666 41.5193 56.8735 41.9391L56.2125 42.6C56.5338 43.1975 56.7945 43.8256 56.9907 44.475H57.9282C58.4943 44.5018 59.0277 44.7485 59.4147 45.1626C59.8016 45.5767 60.0117 46.1255 60 46.6922V3.75C60 2.75544 59.605 1.80161 58.9017 1.09835C58.1984 0.395088 57.2446 0 56.25 0V0ZM31.875 52.5H23.4375C23.1889 52.5 22.9504 52.4012 22.7746 52.2254C22.5988 52.0496 22.5 51.8111 22.5 51.5625C22.5 51.3139 22.5988 51.0754 22.7746 50.8996C22.9504 50.7238 23.1889 50.625 23.4375 50.625H31.875C32.1237 50.625 32.3621 50.7238 32.538 50.8996C32.7138 51.0754 32.8125 51.3139 32.8125 51.5625C32.8125 51.8111 32.7138 52.0496 32.538 52.2254C32.3621 52.4012 32.1237 52.5 31.875 52.5ZM31.875 48.75H28.125C27.8764 48.75 27.6379 48.6512 27.4621 48.4754C27.2863 48.2996 27.1875 48.0611 27.1875 47.8125C27.1875 47.5639 27.2863 47.3254 27.4621 47.1496C27.6379 46.9738 27.8764 46.875 28.125 46.875H31.875C32.1237 46.875 32.3621 46.9738 32.538 47.1496C32.7138 47.3254 32.8125 47.5639 32.8125 47.8125C32.8125 48.0611 32.7138 48.2996 32.538 48.4754C32.3621 48.6512 32.1237 48.75 31.875 48.75ZM31.875 45H23.4375C23.1889 45 22.9504 44.9012 22.7746 44.7254C22.5988 44.5496 22.5 44.3111 22.5 44.0625C22.5 43.8139 22.5988 43.5754 22.7746 43.3996C22.9504 43.2238 23.1889 43.125 23.4375 43.125H31.875C32.1237 43.125 32.3621 43.2238 32.538 43.3996C32.7138 43.5754 32.8125 43.8139 32.8125 44.0625C32.8125 44.3111 32.7138 44.5496 32.538 44.7254C32.3621 44.9012 32.1237 45 31.875 45ZM32.8125 33.2812C32.8125 33.5299 32.7138 33.7683 32.538 33.9442C32.3621 34.12 32.1237 34.2188 31.875 34.2188H25.3125C25.0639 34.2188 24.8254 34.12 24.6496 33.9442C24.4738 33.7683 24.375 33.5299 24.375 33.2812V26.7188C24.375 26.4701 24.4738 26.2317 24.6496 26.0558C24.8254 25.88 25.0639 25.7812 25.3125 25.7812H31.875C32.1237 25.7812 32.3621 25.88 32.538 26.0558C32.7138 26.2317 32.8125 26.4701 32.8125 26.7188V33.2812ZM32.8125 22.9688C32.8125 23.2174 32.7138 23.4558 32.538 23.6317C32.3621 23.8075 32.1237 23.9062 31.875 23.9062H25.3125C25.0639 23.9062 24.8254 23.8075 24.6496 23.6317C24.4738 23.4558 24.375 23.2174 24.375 22.9688V16.4062C24.375 16.1576 24.4738 15.9192 24.6496 15.7433C24.8254 15.5675 25.0639 15.4688 25.3125 15.4688H31.875C32.1237 15.4688 32.3621 15.5675 32.538 15.7433C32.7138 15.9192 32.8125 16.1576 32.8125 16.4062V22.9688ZM55.3125 32.8125H35.625C35.3764 32.8125 35.1379 32.7137 34.9621 32.5379C34.7863 32.3621 34.6875 32.1236 34.6875 31.875C34.6875 31.6264 34.7863 31.3879 34.9621 31.2121C35.1379 31.0363 35.3764 30.9375 35.625 30.9375H55.3125C55.5612 30.9375 55.7996 31.0363 55.9755 31.2121C56.1513 31.3879 56.25 31.6264 56.25 31.875C56.25 32.1236 56.1513 32.3621 55.9755 32.5379C55.7996 32.7137 55.5612 32.8125 55.3125 32.8125ZM55.3125 29.0625H35.625C35.3764 29.0625 35.1379 28.9637 34.9621 28.7879C34.7863 28.6121 34.6875 28.3736 34.6875 28.125C34.6875 27.8764 34.7863 27.6379 34.9621 27.4621C35.1379 27.2863 35.3764 27.1875 35.625 27.1875H55.3125C55.5612 27.1875 55.7996 27.2863 55.9755 27.4621C56.1513 27.6379 56.25 27.8764 56.25 28.125C56.25 28.3736 56.1513 28.6121 55.9755 28.7879C55.7996 28.9637 55.5612 29.0625 55.3125 29.0625ZM55.3125 22.5H35.625C35.3764 22.5 35.1379 22.4012 34.9621 22.2254C34.7863 22.0496 34.6875 21.8111 34.6875 21.5625C34.6875 21.3139 34.7863 21.0754 34.9621 20.8996C35.1379 20.7238 35.3764 20.625 35.625 20.625H55.3125C55.5612 20.625 55.7996 20.7238 55.9755 20.8996C56.1513 21.0754 56.25 21.3139 56.25 21.5625C56.25 21.8111 56.1513 22.0496 55.9755 22.2254C55.7996 22.4012 55.5612 22.5 55.3125 22.5ZM55.3125 18.75H35.625C35.3764 18.75 35.1379 18.6512 34.9621 18.4754C34.7863 18.2996 34.6875 18.0611 34.6875 17.8125C34.6875 17.5639 34.7863 17.3254 34.9621 17.1496C35.1379 16.9738 35.3764 16.875 35.625 16.875H55.3125C55.5612 16.875 55.7996 16.9738 55.9755 17.1496C56.1513 17.3254 56.25 17.5639 56.25 17.8125C56.25 18.0611 56.1513 18.2996 55.9755 18.4754C55.7996 18.6512 55.5612 18.75 55.3125 18.75ZM55.3125 12.1875H35.625C35.3764 12.1875 35.1379 12.0887 34.9621 11.9129C34.7863 11.7371 34.6875 11.4986 34.6875 11.25C34.6875 11.0014 34.7863 10.7629 34.9621 10.5871C35.1379 10.4113 35.3764 10.3125 35.625 10.3125H55.3125C55.5612 10.3125 55.7996 10.4113 55.9755 10.5871C56.1513 10.7629 56.25 11.0014 56.25 11.25C56.25 11.4986 56.1513 11.7371 55.9755 11.9129C55.7996 12.0887 55.5612 12.1875 55.3125 12.1875ZM55.3125 8.4375H35.625C35.3764 8.4375 35.1379 8.33873 34.9621 8.16291C34.7863 7.9871 34.6875 7.74864 34.6875 7.5C34.6875 7.25136 34.7863 7.0129 34.9621 6.83709C35.1379 6.66127 35.3764 6.5625 35.625 6.5625H55.3125C55.5612 6.5625 55.7996 6.66127 55.9755 6.83709C56.1513 7.0129 56.25 7.25136 56.25 7.5C56.25 7.74864 56.1513 7.9871 55.9755 8.16291C55.7996 8.33873 55.5612 8.4375 55.3125 8.4375Z" fill="white"/>
<path d="M51.0938 47.3438C51.0938 46.6021 50.8738 45.877 50.4618 45.2604C50.0497 44.6437 49.464 44.163 48.7788 43.8792C48.0936 43.5954 47.3396 43.5211 46.6122 43.6658C45.8847 43.8105 45.2165 44.1677 44.6921 44.6921C44.1677 45.2165 43.8105 45.8847 43.6658 46.6122C43.5211 47.3396 43.5954 48.0936 43.8792 48.7788C44.163 49.464 44.6437 50.0497 45.2604 50.4618C45.877 50.8738 46.6021 51.0937 47.3438 51.0937C48.3383 51.0937 49.2921 50.6987 49.9954 49.9954C50.6987 49.2921 51.0938 48.3383 51.0938 47.3438Z" fill="white"/>
<path d="M57.9047 50.2357H56.9672C56.7711 50.8851 56.5104 51.5133 56.1891 52.1107L56.85 52.7717C57.242 53.192 57.4516 53.7504 57.4332 54.3248C57.4148 54.8992 57.1697 55.443 56.7516 55.8373L55.8141 56.7748C55.3846 57.2108 54.7996 57.4586 54.1875 57.4639C53.9219 57.4665 53.6584 57.4165 53.4122 57.3168C53.166 57.217 52.942 57.0694 52.7532 56.8826L52.0876 56.217C51.4905 56.5391 50.8623 56.7998 50.2126 56.9951V57.9326C50.1918 58.5071 49.9444 59.0499 49.5246 59.4426C49.1047 59.8352 48.5465 60.0456 47.9719 60.0279H56.25C57.0801 60.0263 57.8862 59.7492 58.5419 59.2403C59.1976 58.7313 59.666 58.0191 59.8735 57.2154L60 57.2857V47.9951C60.0178 48.5697 59.8073 49.1279 59.4147 49.5477C59.0221 49.9676 58.4792 50.215 57.9047 50.2357Z" fill="white"/>
<path d="M46.6922 58.125H47.9953C48.2156 58.125 48.3609 57.9937 48.3609 57.9047V55.4906L49.0969 55.3313C50.0399 55.1254 50.9385 54.7523 51.75 54.2297L52.3875 53.8219L54.0937 55.5328C54.1261 55.5568 54.166 55.5685 54.2062 55.5656C54.3217 55.558 54.4302 55.5079 54.5109 55.425L55.4484 54.4875C55.6031 54.3328 55.6125 54.1406 55.5469 54.075L53.8406 52.3688L54.2484 51.7313C54.7702 50.9193 55.1432 50.0209 55.35 49.0781L55.5094 48.3422H57.9234C58.0125 48.3422 58.1437 48.1969 58.1437 47.9766V46.6922C58.1437 46.4719 58.0125 46.3266 57.9234 46.3266H55.5094L55.3125 45.5906C55.1066 44.6476 54.7335 43.749 54.2109 42.9375L53.8031 42.3L55.5094 40.5937C55.575 40.5328 55.5656 40.3359 55.4109 40.1813L54.4734 39.2438C54.3469 39.1172 54.1359 39.0703 54.0609 39.1406L52.3547 40.8516L51.7172 40.4437C50.9134 39.9362 50.0263 39.5745 49.0969 39.375L48.3609 39.2156V36.7828C48.3609 36.6938 48.2156 36.5625 47.9953 36.5625L46.3266 36.7828V39.1969L45.5906 39.375C44.6476 39.5809 43.749 39.954 42.9375 40.4766L42.3 40.8844L40.5937 39.1594C40.5234 39.0844 40.3125 39.1266 40.1766 39.2625L39.2391 40.2C39.1545 40.2776 39.104 40.3854 39.0984 40.5C39.0967 40.5203 39.0992 40.5408 39.1056 40.5601C39.112 40.5795 39.1224 40.5973 39.1359 40.6125L40.8422 42.3187L40.4344 42.9562C39.9294 43.7654 39.5708 44.6571 39.375 45.5906L39.2156 46.3266H36.7828C36.6938 46.3266 36.5625 46.4719 36.5625 46.6922V47.9953C36.5625 48.2156 36.6938 48.3609 36.7828 48.3609H39.1969L39.3562 49.0969C39.5639 50.0394 39.9368 50.9376 40.4578 51.75L40.8656 52.3875L39.1547 54.0938C39.0937 54.1547 39.1031 54.3516 39.2625 54.5062L40.2 55.4437C40.3313 55.5703 40.5422 55.6172 40.6172 55.5422L42.3187 53.8359L42.9562 54.2438C43.764 54.7536 44.656 55.1155 45.5906 55.3125L46.3266 55.4719V57.8859C46.3266 57.9937 46.4719 58.125 46.6922 58.125ZM41.7187 47.3438C41.7187 46.2312 42.0486 45.1437 42.6667 44.2187C43.2848 43.2936 44.1633 42.5727 45.1912 42.1469C46.219 41.7212 47.35 41.6098 48.4411 41.8268C49.5323 42.0439 50.5346 42.5796 51.3212 43.3663C52.1079 44.1529 52.6436 45.1552 52.8607 46.2464C53.0777 47.3375 52.9663 48.4685 52.5406 49.4963C52.1148 50.5242 51.3939 51.4027 50.4688 52.0208C49.5438 52.6389 48.4563 52.9688 47.3437 52.9688C45.8519 52.9687 44.4212 52.3761 43.3663 51.3212C42.3114 50.2663 41.7187 48.8356 41.7187 47.3438Z" fill="white"/>
</g>
<defs>
<clipPath id="clip0">
<rect width="60" height="75" fill="white"/>
</clipPath>
</defs>
</svg>
