<svg width="68" height="58" viewBox="0 0 68 58" fill="none" xmlns="http://www.w3.org/2000/svg">
<path d="M13.5898 50.21V43.3096L22.7803 36.5801L23.5098 39.21C23.7998 40.21 24.3496 41.0801 25.0801 41.7598L13.5898 50.21Z" fill="#154F9E"/>
<path d="M23.3799 7.08984L25.54 3.00977L67.2402 25.0801L56 31.6797L53.96 23.2695L23.3799 7.08984Z" fill="#154F9E"/>
<path d="M29.04 41.3799C27.3798 41.3799 25.8896 40.25 25.4502 38.6699L20.4502 20.96C20.1699 20 20.29 19 20.7802 18.1299C21.2597 17.2598 22.0595 16.6299 23.0097 16.3701C23.3496 16.2695 23.7002 16.2197 24.04 16.2197C25.7002 16.2197 27.1699 17.3398 27.6201 18.9404L32.6201 36.6299C32.8896 37.5898 32.7802 38.5898 32.29 39.46C31.7998 40.3301 31 40.96 30.04 41.2305C29.7099 41.3301 29.3798 41.3799 29.04 41.3799Z" fill="#154F9E"/>
<path d="M0.759766 40.5H11.5898V54.75L0.759766 57.4102V40.5Z" fill="#154F9E"/>
<path d="M24.04 14.2197C23.5098 14.2197 22.9902 14.29 22.4697 14.4404C21 14.8496 19.79 15.8301 19.04 17.1602C18.96 17.2998 18.9102 17.46 18.8301 17.6201L13.4697 14.79L20.9902 0.589844L23.79 2.08007L20.6797 7.91991L52.2197 24.6201L54.21 32.75L51 34.6299L31.1699 24.1397L29.54 18.3897C28.8496 15.9404 26.5801 14.2197 24.04 14.2197Z" fill="#154F9E"/>
</svg>
