<svg width="20" height="25" viewBox="0 0 20 25" fill="none" xmlns="http://www.w3.org/2000/svg">
<g clip-path="url(#clip0)">
<path d="M14.4313 18.1253C14.1765 18.125 13.9241 18.0763 13.6875 17.9815C11.0483 16.9308 8.64989 15.3552 6.63752 13.3503C4.6382 11.3407 3.06698 8.94663 2.01877 6.31279C1.87425 5.95077 1.83866 5.55441 1.91639 5.17244C1.99411 4.79047 2.18177 4.43954 2.45627 4.16279L4.24377 2.37529C4.61632 2.00394 5.12088 1.79541 5.6469 1.79541C6.17291 1.79541 6.67748 2.00394 7.05002 2.37529L8.48752 3.81279C8.67215 3.99684 8.81864 4.21553 8.91859 4.4563C9.01854 4.69708 9.06999 4.95522 9.06999 5.21591C9.06999 5.47661 9.01854 5.73475 8.91859 5.97552C8.81864 6.2163 8.67215 6.43498 8.48752 6.61904L7.66877 7.43779C7.54545 7.55988 7.46957 7.72184 7.45469 7.89473C7.4398 8.06762 7.48689 8.24017 7.58752 8.38154C8.15855 9.14746 8.78525 9.87025 9.46252 10.544C10.1361 11.2215 10.8589 11.8482 11.625 12.419C11.7664 12.5197 11.9389 12.5668 12.1118 12.5519C12.2847 12.537 12.4467 12.4611 12.5688 12.3378L13.3813 11.5253C13.7592 11.1643 14.2617 10.9628 14.7844 10.9628C15.3071 10.9628 15.8096 11.1643 16.1875 11.5253L17.6313 12.969C18.0026 13.3416 18.2112 13.8461 18.2112 14.3722C18.2112 14.8982 18.0026 15.4027 17.6313 15.7753L15.8438 17.5628C15.657 17.7449 15.436 17.8884 15.1936 17.9849C14.9512 18.0815 14.6922 18.1292 14.4313 18.1253ZM5.62502 3.04404C5.52883 3.0436 5.43349 3.06214 5.34448 3.09861C5.25546 3.13507 5.17451 3.18874 5.10627 3.25654L3.33752 5.04404C3.2359 5.14868 3.16699 5.28068 3.13924 5.42388C3.11149 5.56708 3.12609 5.71526 3.18127 5.85029C4.15557 8.3366 5.62487 10.599 7.50002 12.5003C9.38901 14.3926 11.643 15.881 14.125 16.8753C14.2596 16.93 14.4072 16.9437 14.5496 16.9148C14.6919 16.8859 14.8225 16.8156 14.925 16.7128L16.7125 14.9253C16.8492 14.7872 16.9258 14.6008 16.9258 14.4065C16.9258 14.2123 16.8492 14.0259 16.7125 13.8878L15.2688 12.444C15.1284 12.3118 14.9429 12.2381 14.75 12.2381C14.5572 12.2381 14.3716 12.3118 14.2313 12.444L13.4188 13.2565C13.0837 13.5911 12.6403 13.7951 12.1682 13.8318C11.6961 13.8685 11.2264 13.7354 10.8438 13.4565C10.0297 12.8555 9.26095 12.1954 8.54377 11.4815C7.82809 10.7643 7.1659 9.99555 6.56252 9.18154C6.28366 8.79886 6.15058 8.3292 6.18725 7.85713C6.22392 7.38505 6.42792 6.94157 6.76252 6.60654L7.58127 5.78779C7.71791 5.64971 7.79456 5.4633 7.79456 5.26904C7.79456 5.07478 7.71791 4.88837 7.58127 4.75029L6.16252 3.25654C6.09207 3.18646 6.00807 3.13147 5.91566 3.09493C5.82325 3.0584 5.72435 3.04108 5.62502 3.04404Z" fill="black"/>
</g>
<defs>
<clipPath id="clip0">
<rect width="20" height="25" fill="white"/>
</clipPath>
</defs>
</svg>
