<svg width="41" height="35" viewBox="0 0 41 35" fill="none" xmlns="http://www.w3.org/2000/svg">
<g clip-path="url(#clip0)">
<path d="M41.0001 2.02062V26.268C41.0001 27.4227 40.1399 28.2887 38.9931 28.2887H1.72037C0.573519 28.2887 -0.286621 27.4227 -0.286621 26.268V2.02062C-0.286621 0.865979 0.573519 0 1.72037 0H38.9931C40.1399 0 41.0001 0.865979 41.0001 2.02062ZM35.8393 25.4021L24.6574 15.5876L21.7903 17.8969C21.2169 18.4742 20.07 18.4742 19.4966 17.8969L16.6295 15.5876L5.44764 25.4021H36.4127H35.8393ZM2.86722 23.6701L14.049 13.8557L2.86722 4.90722V23.6701ZM5.44764 3.17526L20.6434 15.299L35.8393 3.17526H5.44764ZM38.4197 4.90722L27.2379 13.8557L38.4197 23.6701V4.90722Z" fill="#124285"/>
</g>
<defs>
<clipPath id="clip0">
<rect width="41" height="35" fill="white"/>
</clipPath>
</defs>
</svg>
