<svg width="62" height="77" viewBox="0 0 62 77" fill="none" xmlns="http://www.w3.org/2000/svg">
<path d="M40.7589 26.1739C40.7589 31.416 31.1551 45.584 31.1551 45.584C31.1551 45.584 21.5513 31.416 21.5513 26.1739C21.5513 23.6416 22.5638 21.213 24.366 19.4224C26.1682 17.6318 28.6125 16.6259 31.1613 16.6259C33.71 16.6259 36.1543 17.6318 37.9566 19.4224C39.7588 21.213 40.7713 23.6416 40.7713 26.1739H40.7589Z" stroke="#124285" stroke-width="3" stroke-linecap="round" stroke-linejoin="round"/>
<path d="M31.155 29.1306C32.9835 29.1306 34.4658 27.6579 34.4658 25.8412C34.4658 24.0245 32.9835 22.5518 31.155 22.5518C29.3265 22.5518 27.8442 24.0245 27.8442 25.8412C27.8442 27.6579 29.3265 29.1306 31.155 29.1306Z" stroke="#124285" stroke-width="3" stroke-linecap="round" stroke-linejoin="round"/>
</svg>
