<svg width="36" height="45" viewBox="0 0 36 45" fill="none" xmlns="http://www.w3.org/2000/svg">
<g clip-path="url(#clip0)">
<path d="M25.9763 32.6252C25.5177 32.6248 25.0633 32.537 24.6375 32.3665C19.887 30.4752 15.5698 27.6391 11.9475 24.0302C8.34876 20.4129 5.52057 16.1036 3.63379 11.3627C3.37364 10.7111 3.30959 9.99765 3.44949 9.3101C3.5894 8.62255 3.92718 7.99087 4.42129 7.49273L7.63879 4.27523C8.30937 3.60679 9.21759 3.23145 10.1644 3.23145C11.1112 3.23145 12.0195 3.60679 12.69 4.27523L15.2775 6.86273C15.6099 7.19403 15.8736 7.58766 16.0535 8.02106C16.2334 8.45445 16.326 8.9191 16.326 9.38835C16.326 9.85761 16.2334 10.3223 16.0535 10.7557C15.8736 11.189 15.6099 11.5827 15.2775 11.914L13.8038 13.3877C13.5818 13.6075 13.4452 13.899 13.4184 14.2102C13.3916 14.5214 13.4764 14.832 13.6575 15.0865C14.6854 16.4651 15.8134 17.7662 17.0325 18.979C18.2451 20.1984 19.5461 21.3265 20.925 22.354C21.1795 22.5351 21.4901 22.6199 21.8013 22.5931C22.1125 22.5663 22.404 22.4297 22.6238 22.2077L24.0863 20.7452C24.7666 20.0954 25.6711 19.7327 26.6119 19.7327C27.5527 19.7327 28.4573 20.0954 29.1375 20.7452L31.7363 23.344C32.4047 24.0146 32.7801 24.9228 32.7801 25.8696C32.7801 26.8164 32.4047 27.7246 31.7363 28.3952L28.5188 31.6127C28.1825 31.9406 27.7848 32.1988 27.3485 32.3726C26.9122 32.5463 26.4459 32.6322 25.9763 32.6252ZM10.125 5.47898C9.95189 5.47818 9.78029 5.51156 9.62006 5.5772C9.45983 5.64283 9.31413 5.73944 9.19129 5.86148L6.00754 9.07898C5.82462 9.26732 5.70058 9.50493 5.65063 9.76269C5.60068 10.0204 5.62697 10.2872 5.72629 10.5302C7.48003 15.0056 10.1248 19.078 13.5 22.5002C16.9002 25.9063 20.9574 28.5856 25.425 30.3752C25.6672 30.4737 25.933 30.4984 26.1892 30.4464C26.4454 30.3944 26.6805 30.2678 26.865 30.0827L30.0825 26.8652C30.3285 26.6167 30.4665 26.2811 30.4665 25.9315C30.4665 25.5818 30.3285 25.2463 30.0825 24.9977L27.4838 22.399C27.2312 22.1609 26.8972 22.0282 26.55 22.0282C26.2029 22.0282 25.8689 22.1609 25.6163 22.399L24.1538 23.8615C23.5507 24.4638 22.7525 24.831 21.9027 24.897C21.053 24.963 20.2076 24.7234 19.5188 24.2215C18.0535 23.1396 16.6697 21.9514 15.3788 20.6665C14.0906 19.3754 12.8986 17.9917 11.8125 16.5265C11.3106 15.8377 11.0711 14.9923 11.1371 14.1425C11.203 13.2928 11.5703 12.4945 12.1725 11.8915L13.6463 10.4177C13.8922 10.1692 14.0302 9.83364 14.0302 9.48398C14.0302 9.13432 13.8922 8.79877 13.6463 8.55023L11.0925 5.86148C10.9657 5.73533 10.8145 5.63635 10.6482 5.57058C10.4818 5.50482 10.3038 5.47365 10.125 5.47898Z" fill="#124285"/>
</g>
<defs>
<clipPath id="clip0">
<rect width="36" height="45" fill="white"/>
</clipPath>
</defs>
</svg>
