<svg width="150" height="176" viewBox="0 0 150 176" fill="none" xmlns="http://www.w3.org/2000/svg">
<g opacity="0.03">
<path d="M14.4125 149.756L73.7875 174.756C74.1713 174.918 74.5835 175.001 75 175.001C75.4164 175.001 75.8287 174.918 76.2125 174.756L135.587 149.756C136.154 149.518 136.638 149.117 136.979 148.604C137.319 148.092 137.5 147.49 137.5 146.875V15.625C137.5 14.7962 137.171 14.0013 136.585 13.4153C135.999 12.8292 135.204 12.5 134.375 12.5H15.625C14.7962 12.5 14.0013 12.8292 13.4153 13.4153C12.8292 14.0013 12.5 14.7962 12.5 15.625V146.875C12.4998 147.49 12.6812 148.092 13.0214 148.604C13.3616 149.117 13.8455 149.518 14.4125 149.756ZM18.75 18.75H131.25V144.8L75 168.484L18.75 144.8V18.75Z" fill="white"/>
<path d="M7.65004 161.562L33.1625 172.303L35.5875 166.544L10.075 155.8C8.93738 155.324 7.96658 154.521 7.28563 153.493C6.60469 152.465 6.24427 151.258 6.25004 150.025V112.5H4.46025e-05V150.025C-0.00654176 152.489 0.716455 154.899 2.07787 156.952C3.43929 159.005 5.37817 160.61 7.65004 161.562V161.562Z" fill="white"/>
<path d="M76.1625 159.153L123.037 140.403C123.617 140.171 124.114 139.77 124.464 139.252C124.814 138.735 125 138.125 125 137.5V28.125C125 27.2962 124.671 26.5013 124.085 25.9153C123.499 25.3292 122.704 25 121.875 25H28.125C27.2962 25 26.5013 25.3292 25.9153 25.9153C25.3292 26.5013 25 27.2962 25 28.125V137.5C24.9995 138.125 25.1862 138.735 25.536 139.252C25.8859 139.77 26.3827 140.171 26.9625 140.403L73.8375 159.153C74.5843 159.449 75.4157 159.449 76.1625 159.153V159.153ZM75 56.25C78.3152 56.25 81.4946 57.567 83.8388 59.9112C86.183 62.2554 87.5 65.4348 87.5 68.75V75H62.5V68.75C62.5 65.4348 63.817 62.2554 66.1612 59.9112C68.5054 57.567 71.6848 56.25 75 56.25V56.25ZM59.375 81.25H96.875V118.75H53.125V81.25H59.375ZM78.125 151.634V125H100C100.829 125 101.624 124.671 102.21 124.085C102.796 123.499 103.125 122.704 103.125 121.875V96.875H118.75V135.384L78.125 151.634ZM118.75 90.625H103.125V78.125C103.125 77.2962 102.796 76.5013 102.21 75.9153C101.624 75.3292 100.829 75 100 75H93.75V68.75C93.7418 64.3233 92.1691 60.0419 89.31 56.6624C86.4508 53.2829 82.4892 51.0227 78.125 50.2812V31.25H118.75V90.625ZM71.875 31.25V50.2812C67.5108 51.0227 63.5491 53.2829 60.69 56.6624C57.8308 60.0419 56.2582 64.3233 56.25 68.75V75H50C49.1712 75 48.3763 75.3292 47.7903 75.9153C47.2042 76.5013 46.875 77.2962 46.875 78.125V90.625H31.25V31.25H71.875ZM31.25 96.875H46.875V121.875C46.875 122.704 47.2042 123.499 47.7903 124.085C48.3763 124.671 49.1712 125 50 125H71.875V151.634L31.25 135.384V96.875Z" fill="white"/>
<path d="M6.25 100H0V106.25H6.25V100Z" fill="white"/>
<path d="M143.75 12.5V59.375H150V12.5C150 9.18479 148.683 6.00537 146.339 3.66116C143.995 1.31696 140.815 0 137.5 0H128.125V6.25H137.5C139.158 6.25 140.747 6.90848 141.919 8.08058C143.092 9.25268 143.75 10.8424 143.75 12.5Z" fill="white"/>
<path d="M150 65.625H143.75V71.875H150V65.625Z" fill="white"/>
<path d="M71.875 105.675V112.5H78.125V105.675C80.2101 104.938 81.9674 103.487 83.0864 101.58C84.2053 99.6721 84.614 97.4304 84.24 95.2507C83.866 93.0711 82.7335 91.0938 81.0427 89.6683C79.3519 88.2429 77.2115 87.4611 75 87.4611C72.7885 87.4611 70.6482 88.2429 68.9573 89.6683C67.2665 91.0938 66.134 93.0711 65.76 95.2507C65.3861 97.4304 65.7947 99.6721 66.9137 101.58C68.0327 103.487 69.79 104.938 71.875 105.675V105.675ZM75 93.7499C75.6181 93.7499 76.2223 93.9332 76.7362 94.2765C77.2501 94.6199 77.6506 95.108 77.8871 95.679C78.1237 96.25 78.1855 96.8784 78.065 97.4845C77.9444 98.0907 77.6468 98.6476 77.2097 99.0846C76.7727 99.5216 76.2159 99.8193 75.6097 99.9398C75.0035 100.06 74.3751 99.9985 73.8041 99.762C73.2331 99.5255 72.745 99.1249 72.4017 98.611C72.0583 98.0971 71.875 97.493 71.875 96.8749C71.875 96.0461 72.2043 95.2512 72.7903 94.6652C73.3764 94.0791 74.1712 93.7499 75 93.7499V93.7499Z" fill="white"/>
</g>
</svg>
